<svg xmlns="http://www.w3.org/2000/svg" viewBox="0 0 64 64">
	<polygon points="26,32 31.5,28.8 31.5,35.2" fill="#e2e8f0" stroke="#64748b" stroke-width="0.8" stroke-linejoin="round" />
	<path fill="#754e27" d="M60.2 30.6H31.5c-.5 0-.5 2.7 0 2.7h28.7c.9-.1.9-2.7 0-2.7" />
	<path fill="#b28769" d="M59.6 31.2H32c-.5 0-.5 1.4 0 1.4h27.6c.8 0 .8-1.4 0-1.4" />
	<path fill="#f2b200" d="M45.5 36L62 44.6l-2.3-11.7H43.1z" />
	<path fill="#c94747" d="M51.6 39.1L49.5 38l-3.1-5.5h2.1zm6.3 3.3l-2.1-1.1l-3.1-8.8h2.1z" />
	<path fill="#f2b200" d="M45.5 27.9L62 19.2L59.7 31H43.1z" />
	<path fill="#c94747" d="m51.6 24.7l-2.1 1.1l-3.1 5.5h2.1zm6.3-3.3l-2.1 1.1l-3.1 8.8h2.1z" />
</svg>
