<svg xmlns="http://www.w3.org/2000/svg" viewBox="0 0 64 64">
  <!-- 8 rayos intercalados (Grupo A) -->
  <path fill="#ffe62e" d="m20.5 59.7l7-7.2c-2.5-.5-4.8-1.5-6.9-2.9zm23-55.4l-7 7.2c2.5.5 4.8 1.5 6.9 2.9zM4.3 43.5l10.1-.1C13 41.3 12 39 11.5 36.5zm55.4-23l-10.1.1c1.3 2.1 2.3 4.4 2.9 6.9zm-55.4 0l7.2 7c.5-2.5 1.5-4.8 2.9-6.9zm55.4 23l-7.2-7c-.5 2.5-1.5 4.8-2.9 6.9zM20.5 4.3l.1 10.1c2.1-1.3 4.4-2.3 6.9-2.9zm23 55.4l-.1-10.1C41.3 51 39 52 36.5 52.5z" />
  
  <!-- Núcleo central amarillo -->
  <circle cx="32" cy="32" r="19" fill="#ffce31" />
</svg>
